PathFileType	4	(X/Y/Z)	C:\Users\WrightLab\Desktop\Jo\P5V31.trc
DataRate	CameraRate	NumFrames	NumMarkers	Units	OrigDataRate	OrigDataStartFrame	OrigNumFrames
100.00	100.00	       71	19	mm	100.00	227	       907
Frame#	Time	Headset_Front			Headset_Back			Headset_Left			Headset_Right			Left_Shoulder			Right_Shoulder			Sternum			C7			Left Elbow			Right Elbow			Left Wrist			Right Wrist			Left ASIS			Right ASIS			S2			Left Knee			Right Knee			Left Ankle			Right Ankle			
		X1	Y1	Z1	X2	Y2	Z2	X3	Y3	Z3	X4	Y4	Z4	X5	Y5	Z5	X6	Y6	Z6	X7	Y7	Z7	X8	Y8	Z8	X9	Y9	Z9	X10	Y10	Z10	X11	Y11	Z11	X12	Y12	Z12	X13	Y13	Z13	X14	Y14	Z14	X15	Y15	Z15	X16	Y16	Z16	X17	Y17	Z17	X18	Y18	Z18	X19	Y19	Z19	

227	2.260																																								-398.34146	928.46088	-1335.65515				-79.42906	477.39786	-1364.37207	-440.77280	464.67075	-1360.67725							
228	2.270																																								-398.38977	928.41949	-1335.87488				-79.33775	477.56540	-1363.84167	-440.78897	464.66577	-1360.67834							
229	2.280																																								-398.54584	927.79034	-1335.25415				-79.29585	477.62994	-1363.59680	-440.81619	464.66174	-1360.68054							
230	2.290																																								-399.15494	928.08594	-1332.92676				-79.19308	477.00427	-1363.51733	-440.87070	464.65833	-1360.68555							
231	2.300																																								-399.54379	929.00659	-1331.19153				-79.18622	477.01477	-1363.47717	-440.87164	464.64304	-1360.68396							
232	2.310																																								-399.58154	928.98047	-1331.36401				-79.35073	476.67178	-1362.37231	-440.90732	464.68698	-1360.69238							
233	2.320																																								-400.00134	929.85614	-1329.76721				-79.33486	476.68701	-1362.27832	-440.90195	464.67389	-1360.69031							
234	2.330																																								-400.01990	929.82458	-1329.84851				-79.32738	476.67007	-1362.23096	-440.92175	464.66095	-1360.69080							
235	2.340																																								-400.58102	930.21832	-1327.32202				-79.31615	476.65982	-1362.16187	-440.91644	464.62405	-1360.68616							
236	2.350																																								-400.59192	930.20544	-1327.37073				-79.26563	476.73816	-1361.86670	-440.90118	464.62872	-1360.68518							
237	2.360																																								-400.60403	930.22095	-1327.43030				-79.22597	476.79337	-1361.63416	-440.89694	464.59589	-1360.68115							
238	2.370																																								-400.62537	930.20306	-1327.52710				-79.21118	476.80060	-1361.54578	-440.83920	464.52893	-1360.66797							
239	2.380																																								-401.25214	931.03870	-1324.65491				-79.17223	476.86749	-1361.31897	-440.74448	464.65567	-1360.31042							
240	2.390																																								-401.23581	931.05994	-1324.58215				-78.67091	476.05560	-1362.15588	-440.85757	464.53580	-1359.52441							
241	2.400																																								-401.23334	931.03845	-1324.56677				-78.64886	476.07416	-1362.02502	-441.44882	464.74573	-1358.95496							
242	2.410																																								-401.88034	931.86511	-1321.79248				-78.62869	476.09113	-1361.90527	-441.39841	464.95859	-1357.59155							
243	2.420																																								-401.91467	931.10590	-1321.66370				-78.60252	476.11313	-1361.74988	-441.36087	464.90674	-1357.58203							
244	2.430																																								-401.93765	931.05560	-1321.76233				-78.57397	476.13721	-1361.58044	-441.64279	464.75769	-1357.42285							
245	2.440																																								-402.44702	931.42432	-1319.44775				-78.56470	476.14496	-1361.52539	-441.40857	463.83517	-1356.99719							
246	2.450																																								-402.65350	931.16913	-1318.32983				-79.04563	476.37836	-1359.41626	-441.42886	464.02267	-1355.76807							
247	2.460																																								-402.62643	931.19568	-1318.20813				-79.03312	476.38885	-1359.34204	-441.52481	464.18179	-1354.29163							
248	2.470																																								-402.64365	931.16583	-1318.28333				-79.01608	476.40320	-1359.24097	-441.51767	464.16962	-1354.28955							
249	2.480																																								-402.62753	931.19379	-1318.21301				-79.51555	476.62073	-1357.24463	-441.48587	464.13831	-1354.28284							
250	2.490																																								-402.19379	933.84387	-1308.28833				-79.51555	476.62073	-1357.24463	-441.73001	463.33679	-1353.22327							
251	2.500																																								-403.03195	931.29474	-1316.25488				-79.51555	476.62073	-1357.24463	-441.78946	463.49106	-1352.51868							
252	2.510																																								-402.16367	934.25226	-1305.72595				-79.51555	476.62073	-1357.24463	-441.93307	463.64944	-1351.04736							
253	2.520																																								-402.19354	934.16107	-1305.53699				-79.51555	476.62073	-1357.24463	-441.96219	463.64175	-1351.04944							
254	2.530																																								-402.00708	934.39539	-1305.06299				-79.51555	476.62073	-1357.24463	-442.19614	463.54660	-1350.87781							
255	2.540																																								-401.90686	934.65552	-1303.86462				-79.51555	476.62073	-1357.24463	-442.53931	463.43356	-1350.17151							
256	2.550																																								-401.84821	934.80664	-1303.25000				-79.51555	476.62073	-1357.24463	-443.41135	463.97055	-1348.61841							
257	2.560																																								-401.69958	934.98895	-1302.86218				-79.50505	476.62952	-1357.18250	-444.00061	464.50162	-1347.81470							
258	2.570																																								-401.60968	935.16901	-1302.05457				-79.50273	476.63144	-1357.16870	-444.76651	464.45535	-1347.80859							
259	2.580																																								-401.50500	935.15942	-1301.68250				-79.48598	476.64554	-1357.06958	-445.67001	464.52563	-1347.26270							
260	2.590																																								-401.32999	935.25830	-1301.14587				-79.47202	476.65723	-1356.98682	-445.74747	464.55179	-1347.27356							
261	2.600																																								-401.02011	935.67499	-1299.95703				-79.46513	476.62521	-1356.94116	-445.96426	464.78229	-1346.09741							
262	2.610																																								-400.94717	935.65942	-1299.32947				-79.46772	476.58936	-1356.95227	-446.52872	465.40775	-1345.10876							
263	2.620																																								-400.75943	935.79785	-1299.13147				-79.47458	476.51245	-1356.98389	-446.36295	465.81323	-1344.53430							
264	2.630																																								-401.03912	936.49524	-1298.64038				-79.70719	475.90927	-1356.39380	-446.48514	465.60968	-1344.09131							
265	2.640																																								-400.92938	936.75024	-1297.55334				-79.75328	475.72104	-1356.64807	-446.40869	465.96674	-1342.69849							
266	2.650																																								-400.77972	936.88043	-1296.92224				-80.34957	475.90640	-1355.08667	-446.39749	466.03564	-1341.56189							
267	2.660																																								-400.58121	937.03406	-1296.41089				-81.47381	476.03833	-1352.20837	-446.61401	465.87247	-1341.39209							
268	2.670																																								-400.49634	937.04321	-1295.90662				-82.54934	476.33060	-1349.06470	-446.56149	465.83035	-1341.38184							
269	2.680																																								-400.93845	937.37659	-1295.01501				-83.18420	476.37662	-1347.72681	-446.20975	465.31454	-1340.23059							
270	2.690																																								-400.80682	937.40601	-1294.66357				-83.47530	475.51550	-1347.45862	-446.11218	465.54327	-1338.84790							
271	2.700																																								-401.00745	937.35004	-1293.43079				-83.56983	475.19809	-1347.98596	-446.03293	465.45764	-1338.42041							
272	2.710																																								-401.30234	937.65942	-1292.34998				-83.71207	474.84262	-1348.79468	-445.89322	465.34061	-1338.39233							
273	2.720																																								-401.16632	937.61719	-1291.22595				-83.82217	474.56708	-1349.42041	-445.70032	465.09268	-1337.90845							
274	2.730																																								-400.93759	937.95618	-1289.72998				-83.94202	474.26480	-1350.10132	-445.63504	465.22824	-1336.09900							
275	2.740																																								-400.34442	937.61377	-1289.51929				-84.15686	473.82468	-1351.33508	-445.26822	464.60434	-1335.37610							
276	2.750																																								-400.32336	937.67688	-1288.10962				-84.73496	474.36252	-1350.93506	-445.07034	464.12125	-1334.67615							
277	2.760																																								-400.08008	938.14844	-1286.75659				-85.27082	474.24951	-1349.72620	-444.45255	464.14075	-1332.73804							
278	2.770																																								-400.20453	937.93079	-1286.18945				-85.99709	474.02209	-1349.16931	-444.46545	464.31995	-1331.00818							
279	2.780																																								-400.12354	938.29480	-1284.82642				-86.13935	473.64410	-1349.97327	-444.31281	464.21799	-1330.50439							
280	2.790																																								-400.15448	938.34113	-1284.24744				-86.26930	473.34583	-1350.71375	-443.70215	464.01257	-1328.49402							
281	2.800																																								-400.21808	938.44714	-1282.95313				-86.39642	473.01071	-1351.43225	-443.50858	464.11163	-1327.69629							
282	2.810																																								-400.21454	938.45483	-1282.62085				-87.00559	473.54086	-1350.28357	-443.42184	464.27194	-1326.74573							
283	2.820																																								-400.79922	938.85522	-1281.06714				-87.81780	473.76941	-1349.08960	-443.92288	464.14084	-1325.11340							
284	2.830																																		-435.76263	1266.88257	-1039.93970				-400.85849	938.36279	-1279.93103				-88.98927	475.12878	-1345.33850	-443.83649	464.27356	-1324.75781							
285	2.840																																		-436.67487	1264.94922	-1038.94385				-400.68881	937.91742	-1278.93481				-89.04502	475.02249	-1345.65796	-444.03143	464.11774	-1323.93835							
286	2.850																																		-437.16882	1262.76379	-1038.39075				-400.62939	937.84979	-1277.99829				-88.95921	475.21579	-1345.17029	-444.01862	464.50787	-1322.21204							
287	2.860																												-503.30673	1208.00574	-1262.95056				-436.96039	1260.46570	-1037.72302				-400.59274	937.78290	-1276.67188				-88.95232	475.30048	-1345.14063	-444.62204	464.35239	-1321.54480							
288	2.870																												-504.87161	1206.95898	-1262.69592				-437.71640	1257.27234	-1037.34631				-401.14352	937.50775	-1275.26038				-88.81789	475.60083	-1344.37634	-444.76041	464.37503	-1320.78833							
289	2.880																												-506.02783	1206.38110	-1263.11316				-436.98407	1254.76843	-1036.85449				-400.98486	937.36096	-1273.90613				-88.65911	475.94940	-1343.47278	-445.13879	464.20514	-1319.53101							
290	2.890																												-506.86148	1205.59900	-1262.89771				-437.31552	1251.69055	-1036.04810				-399.85760	936.60059	-1272.69495				-88.54803	476.22824	-1342.84534	-444.77786	463.52771	-1318.67126							
291	2.900																												-507.34964	1204.25195	-1262.66626				-436.70837	1249.22205	-1036.08813				-399.88556	936.36084	-1271.62134				-88.31580	476.63791	-1341.51038	-446.10336	464.22754	-1317.71130							
292	2.910																												-507.65814	1202.33936	-1262.54309				-435.50885	1245.86169	-1036.07910				-399.84882	936.10767	-1270.57227				-88.14069	476.99680	-1340.51050	-446.11926	464.55511	-1316.04651							
293	2.920																												-507.84552	1200.54163	-1263.05176				-434.91370	1242.40234	-1035.41992				-399.32324	935.70691	-1269.06531				-87.38155	476.61377	-1341.91089	-446.70584	464.52246	-1314.93921							
294	2.930																												-508.39645	1199.76526	-1262.71948				-437.44287	1241.23230	-1035.47107				-399.28250	935.49072	-1267.65857				-87.82043	477.57419	-1338.67090	-446.96143	464.18961	-1314.87952							
295	2.940																												-509.83350	1200.16895	-1262.80920				-437.81705	1238.13013	-1035.24731				-399.13669	935.03894	-1266.35938				-87.66096	477.79834	-1337.74634	-447.72324	464.61597	-1314.07458							
296	2.950																												-509.85983	1199.22498	-1263.59473				-438.04303	1235.72583	-1036.63794				-399.59625	935.22162	-1265.08142				-87.50125	478.04263	-1336.82300	-447.48557	464.94873	-1312.59277							
297	2.960																												-511.36234	1197.93542	-1263.10950				-438.64838	1232.83911	-1037.16968				-399.44305	934.65363	-1264.50879				-87.36150	478.23627	-1336.01221	-447.20383	464.73212	-1312.07727							
